<?xml version="1.0" standalone="no"?><!DOCTYPE svg PUBLIC "-//W3C//DTD SVG 1.1//EN" "http://www.w3.org/Graphics/SVG/1.1/DTD/svg11.dtd"><svg t="1716177550115" class="icon" viewBox="0 0 1024 1024" version="1.1" xmlns="http://www.w3.org/2000/svg" p-id="5446" xmlns:xlink="http://www.w3.org/1999/xlink" width="200" height="200"><path d="M480.017676 730.412495h72.822217a31.470847 31.470847 0 0 1 31.470848 31.470848v203.952754A32.99926 32.99926 0 0 1 551.311481 998.883496h-69.801497a32.99926 32.99926 0 0 1-32.99926-32.99926V761.883343a31.470847 31.470847 0 0 1 31.506952-31.470848zM512.968797 19.351863a277.400778 277.400778 0 0 1 277.400778 277.400778v377.361336a52.603853 52.603853 0 0 1-52.603853 52.603853H288.135767a52.603853 52.603853 0 0 1-52.603853-52.603853V296.752641a277.400778 277.400778 0 0 1 277.436883-277.400778z" fill="#FFFFFF" p-id="5447"></path><path d="M489.982442 735.406913h91.885246v231.379929a35.875563 35.875563 0 0 1-35.875562 35.875562h-20.134122a35.875563 35.875563 0 0 1-35.875562-35.875562V735.406913z" fill="#65A347" p-id="5448"></path><path d="M489.982442 735.406913h50.774571v233.473974a24.960053 24.960053 0 0 1-24.960052 24.960052h-0.842432a24.960053 24.960053 0 0 1-24.960053-24.960052v-233.473974h-0.012034z" fill="#9BD37A" p-id="5449"></path><path d="M735.406913 735.635573H377.433544a55.119113 55.119113 0 0 1-54.962661-54.962662V262.549908C322.470883 136.895178 425.331813 28.040946 550.938404 28.040946h10.975684c95.832642 6.510795 228.455487 108.854232 228.455487 234.508962v418.123003a55.119113 55.119113 0 0 1-54.962662 54.962662z" fill="#FFAC1F" p-id="5450"></path><path d="M505.483188 40.593181h4.64541A183.012305 183.012305 0 0 1 693.140903 223.605486v468.007005a44.023082 44.023082 0 0 1-44.023082 44.023082H366.506a44.023082 44.023082 0 0 1-44.023083-44.023082V223.605486A183.012305 183.012305 0 0 1 505.483188 40.593181z" fill="#FECD57" p-id="5451"></path><path d="M723.408276 756.985203H300.615793A88.395172 88.395172 0 0 1 212.316899 668.674275V299.665049C212.316899 134.440091 346.75699 0 511.981948 0a298.317158 298.317158 0 0 1 75.096783 9.627793 21.325561 21.325561 0 0 1-10.747023 41.279161A255.72621 255.72621 0 0 0 511.981948 42.651122C370.272874 42.651122 254.968021 157.955974 254.968021 299.665049v368.985156a45.732015 45.732015 0 0 0 45.647772 45.647772h422.792483a45.732015 45.732015 0 0 0 45.623703-45.647772V512.054156a21.325561 21.325561 0 1 1 42.651122 0v156.620119A88.395172 88.395172 0 0 1 723.408276 756.985203z" fill="#231815" p-id="5452"></path><path d="M790.35754 421.324245a21.313526 21.313526 0 0 1-21.325561-21.325561V299.665049c0-77.022342-34.419359-149.411308-94.460681-198.681538a21.325561 21.325561 0 0 1 27.078167-32.939086C771.571309 125.450139 811.646997 209.873847 811.646997 299.665049v100.3216a21.313526 21.313526 0 0 1-21.289457 21.337596zM361.547686 288.833782a20.940449 20.940449 0 0 1-3.959429-0.373077A21.313526 21.313526 0 0 1 340.535029 263.560826c11.3969-60.486608 55.05894-113.126565 114.017135-137.196046a21.325561 21.325561 0 1 1 16.162657 39.461915c-44.997896 18.449258-79.65795 59.93301-88.274824 105.665025A21.313526 21.313526 0 0 1 361.547686 288.833782zM539.04808 1024h-45.250626a64.217378 64.217378 0 0 1-64.133134-64.145169V714.081352h173.528929v245.761444a64.217378 64.217378 0 0 1-64.145169 64.157204zM472.267303 756.732474v203.110322a21.518117 21.518117 0 0 0 21.494047 21.506082h45.250626a21.518117 21.518117 0 0 0 21.494047-21.506082V756.732474z" fill="#231815" p-id="5453"></path></svg>